<svg version="1.1" xmlns="http://www.w3.org/2000/svg" width="300" height="90" viewBox="0 0 300 90">
<path d="m 294.93001,52.179121 0,-1.903722 c 0,-6.883721 -3.7555,-12.544909 -11.07856,-12.544909 -6.88117,0 -11.71271,5.418804 -11.71271,12.787291 0,7.370515 4.68612,12.689842 12.25155,12.689842 4.43916,0 7.61292,-1.560355 9.95549,-4.441698 l -3.31871,-2.781366 c -1.22049,1.708295 -3.41561,3.123739 -6.63678,3.123739 -4.63613,0 -7.27307,-2.440514 -7.42001,-6.929177 l 17.95973,0 z m -4.73363,-3.906923 -13.2261,0 c 0.24447,-3.9029 2.92831,-6.442383 6.88117,-6.442383 3.95495,0 6.2,2.586945 6.34493,6.442383 m -26.60062,6.199983 0,-12.153553 7.71286,0 0,-4.09934 -7.71286,0 0,-8.298627 -4.78255,0 0,8.298627 0,4.09934 0,12.201024 c 0,5.66372 3.36811,8.687971 8.59248,8.687971 2.39108,0 4.09728,-0.634243 5.26987,-1.364942 l -1.36694,-3.759984 c -0.73166,0.441337 -1.85423,0.781183 -3.51304,0.781183 -2.49001,0 -4.19982,-1.561851 -4.19982,-4.391699 m -9.04044,-22.056985 c 0,-1.758803 -1.36744,-3.126248 -3.12427,-3.126248 -1.80623,0 -3.12375,1.367445 -3.12375,3.126248 0,1.806269 1.31752,3.123734 3.12375,3.123734 1.75683,0 3.12427,-1.317465 3.12427,-3.123734 m -15.45454,30.305125 4.34427,0 0,-24.501033 -4.78356,0 0,16.544764 c -1.51195,2.100673 -3.3182,3.904911 -6.39445,3.904911 -3.21916,0 -5.17243,-2.487466 -5.17243,-6.100505 l 0,-14.34917 -4.78357,0 0,14.593571 c 0,6.247453 3.12426,10.394764 8.73551,10.394764 3.95235,0 6.39486,-1.609341 7.8603,-3.465598 l 0.19393,2.978296 z M 198.93262,36.413026 c 0,-3.855429 2.82937,-5.614222 6.73624,-5.614222 3.75798,0 6.78221,1.417435 9.07778,3.321161 l 2.63493,-4.101851 c -2.8323,-2.245594 -6.83215,-3.807448 -11.66472,-3.807448 -7.0766,0 -11.76224,4.101851 -11.76224,10.399297 0,5.366799 2.9273,8.393575 11.66482,10.297301 6.05045,1.267467 8.39351,2.829337 8.39351,5.953055 0,3.857455 -3.17116,5.905606 -7.66234,5.905606 -3.90293,0 -7.9548,-1.608835 -10.49423,-4.146292 l -2.77986,4.146292 c 3.36811,2.92931 7.8098,4.589144 13.12917,4.589144 7.85677,0 12.78727,-4.394236 12.78727,-10.88407 0,-5.514248 -3.22167,-8.493054 -11.95867,-10.394761 -6.05046,-1.26949 -8.10166,-2.489997 -8.10166,-5.663212 m -7.37049,14.104755 c 0,-7.368487 -5.31938,-12.787291 -12.59344,-12.787291 -7.27054,0 -12.54231,5.418804 -12.54231,12.787291 0,7.370515 5.27177,12.689842 12.54231,12.689842 7.27406,0 12.59344,-5.319327 12.59344,-12.689842 m -4.83307,0 c 0,4.882024 -3.26868,8.443052 -7.76037,8.443052 -4.49069,0 -7.71186,-3.561028 -7.71186,-8.443052 0,-4.928485 3.22117,-8.541019 7.71186,-8.541019 4.49169,0 7.76037,3.612534 7.76037,8.541019 m -28.45395,12.20254 4.78305,0 0,-14.496105 c 0,-6.294925 -3.3661,-10.493726 -9.27221,-10.493726 -3.75741,0 -6.34483,1.658812 -7.75978,3.465587 l -0.19746,-2.976789 -4.34123,0 0,24.501033 4.78305,0 0,-16.544255 c 1.51238,-2.148635 3.46362,-3.904915 6.34544,-3.904915 3.46261,0 5.65914,2.537469 5.65914,6.24747 l 0,14.2017 z m -19.51545,-12.20254 c 0,-7.368487 -5.31928,-12.787291 -12.59285,-12.787291 -7.27055,0 -12.54241,5.418804 -12.54241,12.787291 0,7.370515 5.27186,12.689842 12.54241,12.689842 7.27357,0 12.59285,-5.319327 12.59285,-12.689842 m -4.83056,0 c 0,4.882024 -3.27109,8.443052 -7.76229,8.443052 -4.48869,0 -7.71038,-3.561028 -7.71038,-8.443052 0,-4.928485 3.22169,-8.541019 7.71038,-8.541019 4.4912,0 7.76229,3.612534 7.76229,8.541019 M 90.978115,36.413026 c 0,-3.855429 2.830334,-5.614222 6.734742,-5.614222 3.757973,0 6.784263,1.417435 9.077303,3.321161 l 2.63745,-4.101851 c -2.83185,-2.245594 -6.83424,-3.807448 -11.665261,-3.807448 -7.078136,0 -11.763725,4.101851 -11.763725,10.399297 0,5.366799 2.929319,8.393575 11.666772,10.297301 6.050534,1.267467 8.393574,2.829337 8.393574,5.953055 0,3.857455 -3.17121,5.905606 -7.66238,5.905606 -3.904912,0 -7.954248,-1.608835 -10.494239,-4.146292 l -2.779841,4.146292 c 3.366107,2.92931 7.807298,4.589144 13.12713,4.589144 7.85933,0 12.78731,-4.394236 12.78731,-10.88407 0,-5.514248 -3.22119,-8.493054 -11.956634,-10.394761 -6.051533,-1.26949 -8.102201,-2.489997 -8.102201,-5.663212 M 71.422739,51.823628 c 0,-10.999206 -5.382961,-20.757701 -13.64777,-26.797116 l 0,-13.701791 -1.095271,-0.73574 C 51.215442,6.933017 44.840734,5 38.246867,5 19.953921,5 5.069993,19.881399 5.069993,38.176379 c 0,10.996671 5.383459,20.755179 13.648266,26.794581 l 0,13.702297 1.097798,0.732712 C 25.280313,83.064461 31.652505,85 38.246867,85 56.539319,85 71.422739,70.116587 71.422739,51.823628 M 52.833869,22.034077 c -4.405345,-2.166318 -9.356037,-3.388836 -14.587002,-3.388836 -6.594362,0 -12.966554,1.933521 -18.43081,5.591508 l -1.097798,0.733214 0,33.567718 C 13.359537,53.39711 10.012111,46.171528 10.012111,38.176379 c 0,-15.569672 12.665092,-28.234764 28.234756,-28.234764 5.16077,0 10.197316,1.401295 14.587002,4.056411 l 0,8.036051 z m 0,40.318124 c -4.389686,2.65512 -9.426232,4.058424 -14.587002,4.058424 -5.333459,0 -10.327093,-1.489653 -14.587005,-4.070039 l 0,-34.694803 c 4.391204,-2.655625 9.428255,-4.058925 14.587005,-4.058925 5.332963,0 10.326596,1.487127 14.587002,4.070034 l 0,34.695309 z M 66.481125,51.823628 c 0,15.56714 -12.665091,28.234253 -28.234258,28.234253 -5.156737,0 -10.193273,-1.403305 -14.587005,-4.060951 l 0,-8.033523 c 4.404841,2.166808 9.355543,3.388843 14.587005,3.388843 6.593867,0 12.968575,-1.93555 18.432831,-5.593537 l 1.095271,-0.733217 0,-33.565694 c 5.358214,5.141072 8.706156,12.366155 8.706156,20.363826 m 187.290485,-13.60434 -4.78306,0 0,24.501538 4.78306,0 0,-24.501538 z"/>
</svg>
